<svg version="1.2" xmlns="http://www.w3.org/2000/svg" viewBox="0 0 2122 2122" width="2122" height="2122">
	<title>2389_R0lVIE5JQyA1MDQtNDY-ai</title>
	<style>
		.s0 { fill: #fefefe;stroke: #2b2a31;stroke-linecap: round;stroke-linejoin: round;stroke-width: 69.8;stroke-dasharray: 2514.4524,69.8459,0,69.8459 } 
		.s1 { fill: #fefefe;stroke: #2b2a31;stroke-linecap: round;stroke-linejoin: round;stroke-width: 69.8 } 
		.s2 { fill: #fefefe;stroke: #2b2a31;stroke-linecap: round;stroke-linejoin: round;stroke-width: 69.8;stroke-dasharray: 1815.9934,69.8459,0,69.8459 } 
	</style>
	<g id="_Artboards_">
	</g>
	<g id="Guias">
	</g>
	<g id="iconos">
		<g id="&lt;Group&gt;">
			<g id="&lt;Group&gt;">
				<g id="&lt;Group&gt;">
					<path id="&lt;Path&gt;" class="s0" d="m1265.5 406.6h-947.3c-58.6 0-106.1 47.5-106.1 106.1l0.9 1220.2c6.4 52.5 51 93.2 105.2 93.2h947.3c54.2 0 98.9-40.7 105.2-93.2l0.9-1220.2c0-58.6-47.5-106.1-106.1-106.1z"/>
				</g>
			</g>
			<g id="&lt;Group&gt;">
				<path id="&lt;Compound Path&gt;" fill-rule="evenodd" class="s1" d="m1411 1235.4c-225.6 188.1-560.9 157.7-748.9-67.9-188.1-225.5-157.7-560.8 67.9-748.9 225.5-188 560.8-157.6 748.9 67.9 188.1 225.6 157.6 560.9-67.9 748.9zm-41.3-657.9c-137.8-165.3-383.4-187.5-548.7-49.7-165.3 137.7-187.6 383.4-49.8 548.7 137.8 165.3 383.5 187.6 548.8 49.8 165.2-137.8 187.5-383.5 49.7-548.8z"/>
				<path id="&lt;Path&gt;" class="s2" d="m1568.2 1424l-146.4-175.6"/>
				<path id="&lt;Path&gt;" class="s2" d="m1885.1 1641.6c36.7 44.2 30.8 109.7-13.3 146.5-44.1 36.8-109.7 30.9-146.5-13.3l-183.6-220.2c-36.8-44.1-30.8-109.6 13.3-146.4 44.1-36.8 109.7-30.9 146.5 13.2z"/>
				<path id="&lt;Path&gt;" class="s2" d="m1563.9 1581.3l159.8-133.2"/>
			</g>
			<path id="&lt;Path&gt;" class="s2" d="m405.6 1598.1h586"/>
			<path id="&lt;Path&gt;" class="s2" d="m405.6 1336.2h293"/>
			<path id="&lt;Path&gt;" class="s2" d="m405.6 1070.6h90.8"/>
			<path id="&lt;Path&gt;" class="s2" d="m892 1070.6h281.2"/>
			<path id="&lt;Path&gt;" class="s2" d="m781.6 863.6h391.6"/>
			<path id="&lt;Path&gt;" class="s2" d="m389.9 863.6h148.8"/>
		</g>
	</g>
</svg>